<?xml version="1.0" encoding="utf-8"?>
<!-- Generator: Adobe Illustrator 22.0.0, SVG Export Plug-In . SVG Version: 6.00 Build 0)  -->
<svg version="1.1" xmlns="http://www.w3.org/2000/svg" xmlns:xlink="http://www.w3.org/1999/xlink" x="0px" y="0px"
	 viewBox="0 0 419.5 595.3" style="enable-background:new 0 0 419.5 595.3;" xml:space="preserve">
<style type="text/css">
	.st0{fill:#1D1D1B;}
</style>
<g id="Layer_1">
</g>
<g id="Layer_2">
</g>
<g id="Layer_4">
	<g>
		<path class="st0" d="M60.3,213.4c0.5,12.2,16.9,67.5,16.9,74.6s9.4,15,9.4,30.5c0,4.7,0.4,13.4,1,23.3c1.2,0,1.2-1.3,2.8-1.2
			c1.8-25.1,7.9-63.9,7.9-63.9s4.2,6.6,10.3,8.9c6.1,2.3,19.2-1.9,27.7-1.9c8.4,0,11.7-11.3,14.5-19.2c2.8-8,23-20.2,23-20.2
			s-2.3,9.4-9.8,21.6c-7.5,12.2-33.3,22.5-33.3,22.5s20.6-5.2,29.5-9.8s14.5-26.3,28.6-37.5s39.9-25.8,61.4-25.8s23.9,8,31,16.9
			c7,8.9,4.7,13.1,6.6,20.2s20.6,11.7,23,24.9c2,11.2,5,52.4,5.9,64.5c0.9,0,1.8,0,2.8,0c0.3-20.4-0.6-36.7,3.6-47.2
			c6.6-16.4,8.9-52.5,12.2-55.8c3.3-3.3,15.5-1.4,15.5-1.4s-4.7-23.5-12.2-27.2c-7.5-3.8,9.4-4.7,15.9-6.1s-8.9-11.3-7.5-14.5
			c1.4-3.3,5.2-8,8.9-12.2c3.8-4.2,6.6-14.1-3.8-9.8c-10.3,4.2,0.9-11.3-2.3-15c-3.3-3.8-4.2-7-6.6,3.3c-2.3,10.3-4.2,28.1-6.1,10.8
			s2.8-21.1-9.8-27.7s-10.3-4.2-27.7-17.4c-17.4-13.1-6.1-4.2-18.3-15s-27.7-14.1-42.7-17.4c-15-3.3-11.3-1.9-23.9-8
			c-12.7-6.1-24.4,12.2-32.8,15c-8.4,2.8-3.8,4.7-17.8,9.8s-5.6,5.2-17.4,7c-11.7,1.9-4.2-8-15.5,4.7s-0.9,8.4-22,19.2
			c-21.1,10.8-14.5,14.5-18.3,18.8c-3.8,4.2,1.4-3.3-8.9,7.5s0,5.2-10.3,14.1s0.5,4.7-1.9,13.6S59.9,201.2,60.3,213.4z"/>
		<path class="st0" d="M318.8,311.5c2.8,12,7.5,25.8,1.9,51.6s-7.5,49.7-11,56.8s-26.3,46.9-30.5,52.3c-4.2,5.4-21.3,23.2-32.6,28.4
			c-11.3,5.2-39.6,14.8-46.9,14.8c-7.3,0-42.4-8.4-48.3-14.1c-5.9-5.6-31.2-37.8-35.6-46.2c-4.5-8.4-7-13.1-10.1-16.9
			c-3-3.8-12.9-44.8-13.4-49.7c-0.5-4.9-8.2-40.1-8.2-45.3s4.4-26.6,4.4-26.6s3.8,37.5,11.5,78.9c2.8,14.9,31.7,53.5,36.8,52.3
			c5.2-1.2,12.7-4.7,14.5-6.8s0.5-4.2,2.8,5.4c2.3,9.6,11.3,24.4,18.1,28.6s27.7,8.7,34.2,7c6.6-1.6,26.3-5.9,33.1-19.7
			c6.8-13.8,10.8-18.1,11.5-26.3s4.9-9.6,4.9-9.6s2.1,21.1,19,15.5c16.9-5.6,29.3-27.4,32.8-44.1c3.5-16.7,6.9-40.8,9-56.6
			C318.8,325.6,318.8,311.5,318.8,311.5z"/>
		<path class="st0" d="M197,466.1c1.6-4,23.5-4.2,25.5-8.4c2-4.2,1.3-5.5,1.3-5.5s-11.6,1.6-18.9,1.6c-7.3,0-17.7-4.4-22.2-1.7
			s-5.8,8.4,2.5,10.8C193.4,465.1,196.7,466.9,197,466.1z"/>
		<path class="st0" d="M152.2,446.4c0,0-8.6-12.8-8.6-20.3c0-7.5,0.2-13.6,4.5-16.4c4.2-2.8,9.5-3.2,17.2-3.4
			c7.7-0.2,9.5-1.5,14.9-2.4c5.4-0.9,26.6-4.2,32.6-2.6c7.1,2,18.5,6.6,24.9,5.8c3.8-0.4,14.5-6.6,17.6-0.9c3,5.6,7,16.4,4.7,19.9
			s-5.4,8.4-5.4,8.4s2.1-7.7-5.2-12c-7.3-4.2-17.4-2.6-33.3-0.7c-15.9,1.9-30.5-3.3-36.3-2.6c-5.6,0.7-14,1.5-21.6,5.4
			C153.2,427.3,152.2,446.4,152.2,446.4z"/>
		<path class="st0" d="M312.9,278.4c-1.5,0.1-0.7,6.5-5.6,11.7c-3.4,3.6-7.9,5-11.7,5.6c-12.2-1.6-28-2.6-46.2-0.9
			c-18.6,1.7-34.3,5.7-46.2,9.6c-1.4,1-4.1,2.7-8,3.3c-5.1,0.8-9-0.9-10.6-1.6c-8.5-2.3-18.7-4.4-30.3-5.4
			c-19.9-1.7-36.8,0.6-49.2,3.3c-4,0.3-8,0.6-12,0.9c-0.7,5.2-1.4,10.5-2.1,15.7c2-0.3,4.1-0.6,6.1-0.9c-0.6,5.1-1.4,18.5,6.8,30.5
			c12.9,18.7,41.8,25.2,61.7,12.7c15.6-9.9,19.2-27.5,19.9-31.4c0-5.1,3.9-9.4,8.9-9.8c5.1-0.5,9.8,3.3,10.6,8.4
			c1.1,4.6,5.6,19.8,19.9,28.6c19,11.7,47.5,7.2,60.3-11c8.6-12.3,7.1-26.5,6.3-31.2c1.3-2.8,3.7-7,8.2-9.4c6.4-3.4,11.3,0.1,15-2.8
			C321.8,298.7,315.6,278.3,312.9,278.4z"/>
	</g>
</g>
<g id="Layer_3">
</g>
</svg>
